<?xml version="1.0" encoding="utf-8"?>
<!-- Generator: Adobe Illustrator 27.7.0, SVG Export Plug-In . SVG Version: 6.00 Build 0)  -->
<svg version="1.1" id="Layer_1" xmlns="http://www.w3.org/2000/svg" xmlns:xlink="http://www.w3.org/1999/xlink" x="0px" y="0px"
	 viewBox="0 0 2000 813.8" style="enable-background:new 0 0 2000 813.8;" xml:space="preserve">
<style type="text/css">
	.st0{display:none;fill:#7BC8C0;}
	.st1{fill:#000;}
</style>
<rect x="593.1" y="-593.1" transform="matrix(-1.902141e-11 1 -1 -1.902141e-11 1406.8976 -593.1024)" class="st0" width="813.8" height="2000"/>
<g>
	<path class="st1" d="M494.67,143.45c-6.63,0-12.32,3.32-12.32,8.05c0,7.58,4.74,25.59,4.74,72.5c0,153.52-48.8,226.96-63.02,226.96
		c-1.9,0-4.26-0.47-4.26-6.63V163.35c0-11.37-9-19.9-18.95-19.9c-55.91,0-133.15,33.17-133.15,133.62
		c0,47.86,23.22,82.92,39.8,94.29c13.74,9.95,34.12-8.53,34.12-28.43c0-3.32-1.42-5.69-3.79-5.69c-2.37,0-4.74,1.9-7.58,1.9
		c-6.16,0-25.11-24.16-25.11-62.07c0-59.7,35.06-91.45,77.71-96.66v266.76c0,31.27,18.95,41.22,32.22,41.22
		c53.07,0,108.98-106.61,108.98-270.55c0-28.9-1.9-43.12-4.26-54.49C516.94,149.61,510.3,143.45,494.67,143.45z"/>
	<path class="st1" d="M579.96,247.22c16.58,0,28.9-13.27,28.9-28.9c0-16.58-12.32-28.9-28.9-28.9c-15.64,0-28.43,12.32-28.43,28.9
		C551.53,233.95,564.32,247.22,579.96,247.22z"/>
	<path class="st1" d="M1393.51,247.22c16.58,0,28.9-13.27,28.9-28.9c0-16.58-12.32-28.9-28.9-28.9c-15.64,0-28.43,12.32-28.43,28.9
		C1365.08,233.95,1377.88,247.22,1393.51,247.22z"/>
	<path class="st1" d="M1715.71,391.74c-4.74,0-8.53,4.26-11.37,14.21c-9.48,32.69-24.64,56.38-41.7,75.34V314.98
		c0-11.37-9.95-20.85-25.59-20.85c-6.63,0-12.32,3.32-12.32,8.05c0,3.32,1.89,6.16,1.89,15.16v76.29
		c-5.68,33.17-19.9,63.97-38.85,63.97c-13.74,0-21.8-13.74-21.8-39.33c0-39.8,5.21-60.65,13.74-95.71
		c1.89-7.11,15.64-26.06-7.58-26.06c-25.11,0-21.8,9.48-25.11,17.53c0,0-17.06,56.38-17.06,106.61c0,0.86,0.02,1.7,0.04,2.54
		c-5.1,17.17-13.42,33.94-27.52,33.94c-9.95,0-16.11-6.63-16.11-21.8v-150.2c25.11,0,53.07,0,90.97-0.95
		c12.32-0.47,16.58-45.96,3.32-31.75c-32.22,1.42-65.39,1.9-94.29,1.9v-82.92c0-11.37-9.95-20.85-25.59-20.85
		c-6.63,0-15.16,1.9-15.16,5.21c0,3.32,4.74,4.26,4.74,18.01v80.08c-25.59-0.47-42.65-1.42-42.65-1.42
		c-13.74,0-5.21,31.75,9.95,31.75c0,0,11.85,0.95,32.69,0.95v114.44c-0.76,1.77-1.4,3.88-1.89,6.38
		c-4.27,20.85-12.79,51.17-31.75,51.17c-12.32,0-12.32-17.53-12.32-21.8V314.98c0-11.37-9.95-20.85-25.59-20.85
		c-6.63,0-12.32,3.32-12.32,8.05c0,3.32,1.9,6.16,1.9,15.16v80.07c0,0,0,0.01,0,0.01c-5.69,28.9-22.74,59.7-59.7,59.7
		c-27.96,0-48.33-20.85-48.33-58.28c0-42.64,16.58-77.71,34.12-77.71c16.11,0,17.06,17.53,19.43,25.59
		c-2.84,16.58,29.85,7.11,29.85-10.9c0-16.58-12.32-46.43-45.01-46.43c-45.01,0-77.23,54.96-77.23,109.45
		c0,5.06,0.32,9.91,0.9,14.56c-5.54,10.43-15,17.66-28.85,17.66c-3.32,0-6.16,0-9.48-0.95c4.74-16.11,6.63-33.64,6.63-51.17
		c0-45.96-18-79.6-40.27-79.6c-25.59,0-38.38,25.59-38.38,55.44c0,34.12,11.85,65.39,34.12,84.34
		c-6.16,10.9-14.69,18.01-27.96,18.01c-18.48,0-34.12-19.9-34.12-59.7c0-46.91,14.22-64.44,21.8-75.81
		c12.32-8.05,2.84-33.17-9.47-33.17c-10.42,0-48.33,42.17-48.33,111.82c0,6.64,0.43,13.14,1.29,19.42
		c-7,18.32-20.8,37.44-38.24,37.44c-17.53,0-25.11-13.74-25.11-32.69v-27.48c6.16-5.69,49.28-101.4,49.28-171.05
		c0-26.53-0.47-76.29-42.17-76.29c-23.69,0-43.12,25.11-43.12,60.65v189.31c-0.78,1.79-1.42,3.91-1.89,6.38
		c-4.26,20.85-12.79,51.17-31.75,51.17c-11.37,0-16.11-11.37-16.11-21.8v-78.18c0-11.37-9.95-20.85-25.59-20.85
		c-6.63,0-12.32,3.32-12.32,8.06c0,3.32,1.89,6.16,1.89,15.16v72.97c-5.21,13.27-13.74,24.64-26.53,24.64
		c-16.58,0-27.01-14.21-27.01-38.85c0-68.23,42.17-99.03,78.18-99.03c4.74,0,9.48,0.95,13.74,0.95c4.74,0,6.16-2.84,6.16-10.9
		c0-12.32-9-19.9-21.8-19.9c-57.81,0-112.77,48.33-112.77,127.46c0,3.73,0.17,7.38,0.5,10.93c-5.25,15.44-13.7,29.34-28.45,29.34
		c-12.79,0-18.95-12.32-18.95-25.59c0-47.38,21.32-103.29,21.32-108.98c1.89-10.9-17.06-26.53-22.74-26.53h-24.64
		c-4.74,0-9.48,0-25.11-1.9c-5.21-19.43-18.48-25.11-29.85-25.11c-12.32,0-23.69,8.53-23.69,21.8c0,13.74,8.53,23.69,20.37,30.32
		c-0.47,24.17-2.37,63.49-7.58,82.45c-0.16,0.59-0.26,1.18-0.34,1.77c-0.04,0.2-0.09,0.39-0.13,0.6
		c-4.26,20.85-12.79,51.17-31.75,51.17c-12.32,0-12.32-17.53-12.32-21.8V314.98c0-11.37-9.95-20.85-25.59-20.85
		c-6.63,0-12.32,3.32-12.32,8.05c0,3.32,1.9,6.16,1.9,15.16v126.51c0,24.16,14.69,44.54,39.8,44.54c38.83,0,57.43-38.71,66.48-69.42
		c0.29-0.66,0.57-1.36,0.8-2.13c8.53-27.48,11.37-68.71,11.85-87.18h5.21H715c-15.16,40.75-23.69,74.39-23.69,104.72
		c0,41.7,26.53,54.02,48.8,54.02c20.19,0,34.91-10.47,45.66-24.84c9.4,15.31,24.44,24.84,44.84,24.84
		c18.01,0,31.27-8.53,40.75-19.43c7.11,11.37,19.9,19.43,36.48,19.43c22.13,0,37.82-12.59,48.84-29.09
		c8.54,18.17,25.18,29.09,49.24,29.09c24.21,0,42.14-15.08,54.72-32.84c11.04,19.84,29.6,32.84,56.62,32.84
		c27.01,0,45.01-13.74,56.86-34.12c7.11,2.37,14.69,3.32,23.22,3.32c14.3,0,26.08-4.21,35.26-11.12
		c14.73,27.49,42.25,41.92,70.88,41.92c31.61,0,53.17-11.81,67.6-27.41c5.3,15.94,18.28,27.41,37.12,27.41
		c20.63,0,35.54-10.93,46.35-25.78c6.74,18.04,21.14,25.78,39.41,25.78c19.93,0,34.64-10.21,45.42-24.3
		c8.47,15.67,22.41,24.77,40.82,24.77c20.37,0,35.06-13.74,46.43-32.69v60.18c-31.27,27.48-58.75,51.65-58.75,99.5
		c0,30.32,18.95,54.49,45.49,54.49c24.17,0,49.28-17.53,49.28-67.28v-81.97c25.59-22.27,53.07-50.23,69.18-105.19
		c0.47-1.9,0.47-4.26,0.47-4.74C1732.29,402.16,1723.29,391.74,1715.71,391.74z M986.02,199.84c0-7.58,1.89-18.95,7.11-18.95
		c7.58,0,12.79,14.21,12.79,45.49c0,26.06-9.95,88.61-19.9,108.51V199.84z M1155.17,408.32c-10.9-14.21-18.01-34.11-18.01-55.44
		c0-14.69,2.84-22.27,8.06-22.27c9.95,0,11.37,23.69,11.37,55.91C1156.59,393.63,1156.12,400.74,1155.17,408.32z M1613.37,640.49
		c-7.58,0-12.32-11.37-12.32-26.06c0-28.43,10.42-46.43,25.59-62.07v50.7C1626.63,612.06,1628.53,640.49,1613.37,640.49z"/>
</g>
</svg>
